<?xml version="1.0" encoding="UTF-8"?>
<svg id="Layer_1" data-name="Layer 1" xmlns="http://www.w3.org/2000/svg" viewBox="0 0 48 48">
  <defs>
    <style>
      .cls-1 {
        fill: #000;
        stroke-width: 0px;
      }
    </style>
  </defs>
  <path class="cls-1" d="M6,19.89c.553,0,1-.448,1-1V7c0-.551.448-1,1-1h32c.552,0,1,.449,1,1v16.08c0,.552.447,1,1,1s1-.448,1-1V7c0-1.654-1.346-3-3-3H8c-1.654,0-3,1.346-3,3v11.89c0,.552.447,1,1,1Z"/>
  <path class="cls-1" d="M28.164,22.82c-.431.346-.5.975-.153,1.406.197.246.487.374.78.374.22,0,.44-.072.625-.22l2.786-2.237c.706-.561,1.128-1.437,1.128-2.343,0-.824-.33-1.593-.928-2.162-1.081-1.037-2.82-1.08-4.048-.098l-3.204,2.574-2.363-1.842c-1.047-.821-2.36-1.273-3.697-1.273h-.121c1.225-.912,2.031-2.359,2.031-4,0-2.757-2.243-5-5-5s-5,2.243-5,5c0,1.685.844,3.171,2.125,4.077-2.49.367-4.536,2.259-5.017,4.785-.104.542.253,1.066.795,1.17.54.099,1.065-.252,1.17-.795.357-1.876,2.01-3.237,3.928-3.237h5.09c.904,0,1.757.293,2.466.849l2.99,2.33c.366.286.88.282,1.24-.009l3.819-3.069c.438-.349,1.06-.358,1.415-.017.256.244.31.524.31.716,0,.301-.139.592-.376.78l-2.79,2.24ZM16,10c1.654,0,3,1.346,3,3s-1.346,3-3,3-3-1.346-3-3,1.346-3,3-3Z"/>
  <path class="cls-1" d="M40.633,34.232c1.415-.884,2.367-2.444,2.367-4.232,0-2.757-2.243-5-5-5s-5,2.243-5,5c0,1.788.951,3.348,2.367,4.232-2.516.714-4.367,3.026-4.367,5.768,0-2.742-1.85-5.054-4.367-5.768,1.415-.884,2.367-2.444,2.367-4.232,0-2.757-2.243-5-5-5s-5,2.243-5,5c0,1.788.951,3.348,2.367,4.232-2.516.714-4.367,3.026-4.367,5.768,0-2.742-1.85-5.054-4.367-5.768,1.415-.884,2.367-2.444,2.367-4.232,0-2.757-2.243-5-5-5s-5,2.243-5,5c0,1.788.951,3.348,2.367,4.232-2.516.714-4.367,3.026-4.367,5.768v1c0,1.654,1.346,3,3,3h8c1.654,0,3-1.346,3-3,0,1.654,1.346,3,3,3h8c1.654,0,3-1.346,3-3,0,1.654,1.346,3,3,3h8c1.654,0,3-1.346,3-3v-1c0-2.742-1.85-5.054-4.367-5.768ZM10,27c1.654,0,3,1.346,3,3s-1.346,3-3,3-3-1.346-3-3,1.346-3,3-3ZM15,41c0,.551-.448,1-1,1H6c-.552,0-1-.449-1-1v-1c0-2.206,1.794-4,4-4h2c2.206,0,4,1.794,4,4v1ZM24,27c1.654,0,3,1.346,3,3s-1.346,3-3,3-3-1.346-3-3,1.346-3,3-3ZM29,41c0,.551-.448,1-1,1h-8c-.552,0-1-.449-1-1v-1c0-2.206,1.794-4,4-4h2c2.206,0,4,1.794,4,4v1ZM38,27c1.654,0,3,1.346,3,3s-1.346,3-3,3-3-1.346-3-3,1.346-3,3-3ZM43,41c0,.551-.448,1-1,1h-8c-.552,0-1-.449-1-1v-1c0-2.206,1.794-4,4-4h2c2.206,0,4,1.794,4,4v1Z"/>
</svg>