<?xml version="1.0" encoding="UTF-8"?>
<svg id="Layer_1" data-name="Layer 1" xmlns="http://www.w3.org/2000/svg" viewBox="0 0 48 48">
  <defs>
    <style>
      .cls-1 {
        fill: #000;
        stroke-width: 0px;
      }
    </style>
  </defs>
  <path class="cls-1" d="M24.35,44h-14.35c-1.654,0-3-1.346-3-3V7c0-1.654,1.346-3,3-3h17.38c.211,0,.418.024.62.067v5.933c0,1.654,1.346,3,3,3h5.924c.047.212.076.428.076.65v13.46c0,.552.448,1,1,1s1-.448,1-1v-13.46c0-1.325-.514-2.576-1.452-3.526l-6.626-6.646c-.94-.953-2.198-1.478-3.542-1.478H10c-2.757,0-5,2.243-5,5v34c0,2.757,2.243,5,5,5h14.35c.552,0,1-.448,1-1s-.448-1-1-1ZM35.597,11h-4.597c-.551,0-1-.449-1-1v-4.614l5.597,5.614Z"/>
  <path class="cls-1" d="M24,10c0-.552-.448-1-1-1h-11c-.552,0-1,.448-1,1s.448,1,1,1h11c.552,0,1-.448,1-1Z"/>
  <path class="cls-1" d="M32,16h-12c-.552,0-1,.448-1,1s.448,1,1,1h12c.552,0,1-.448,1-1s-.448-1-1-1Z"/>
  <path class="cls-1" d="M16.707,14.459c-.391-.391-1.023-.391-1.414,0l-1.959,1.96-.626-.626c-.391-.391-1.023-.391-1.414,0s-.391,1.023,0,1.414l1.333,1.333c.188.188.442.293.707.293s.52-.105.707-.293l2.667-2.667c.391-.391.391-1.024,0-1.414Z"/>
  <path class="cls-1" d="M33,24c0-.552-.448-1-1-1h-12c-.552,0-1,.448-1,1s.448,1,1,1h12c.552,0,1-.448,1-1Z"/>
  <path class="cls-1" d="M16.707,21.459c-.391-.391-1.023-.391-1.414,0l-1.959,1.96-.626-.626c-.391-.391-1.023-.391-1.414,0s-.391,1.023,0,1.414l1.333,1.333c.188.188.442.293.707.293s.52-.105.707-.293l2.667-2.667c.391-.391.391-1.024,0-1.414Z"/>
  <path class="cls-1" d="M29.13,31c0-.552-.448-1-1-1h-8.13c-.552,0-1,.448-1,1s.448,1,1,1h8.13c.552,0,1-.448,1-1Z"/>
  <path class="cls-1" d="M16.707,28.459c-.391-.391-1.023-.391-1.414,0l-1.959,1.96-.626-.626c-.391-.391-1.023-.391-1.414,0s-.391,1.023,0,1.414l1.333,1.333c.188.188.442.293.707.293s.52-.105.707-.293l2.667-2.667c.391-.391.391-1.024,0-1.414Z"/>
  <path class="cls-1" d="M20,37c-.552,0-1,.448-1,1s.448,1,1,1h4c.552,0,1-.448,1-1s-.448-1-1-1h-4Z"/>
  <path class="cls-1" d="M15.293,35.459l-1.959,1.96-.626-.626c-.391-.391-1.023-.391-1.414,0s-.391,1.023,0,1.414l1.333,1.333c.188.188.442.293.707.293s.52-.105.707-.293l2.667-2.667c.391-.391.391-1.024,0-1.414-.391-.391-1.023-.391-1.414,0Z"/>
  <path class="cls-1" d="M40,34h-1v-2c0-1.103-.897-2-2-2h-4c-1.103,0-2,.897-2,2v2h-1c-1.654,0-3,1.346-3,3v6c0,1.654,1.346,3,3,3h10c1.654,0,3-1.346,3-3v-6c0-1.654-1.346-3-3-3ZM33,32h4v2h-4v-2ZM41,43c0,.551-.449,1-1,1h-10c-.551,0-1-.449-1-1v-6c0-.551.449-1,1-1h10c.551,0,1,.449,1,1v6Z"/>
</svg>