<?xml version="1.0" encoding="UTF-8"?>
<!DOCTYPE svg PUBLIC "-//W3C//DTD SVG 1.1//EN" "http://www.w3.org/Graphics/SVG/1.1/DTD/svg11.dtd">
<!-- Creator: CorelDRAW -->
<svg xmlns="http://www.w3.org/2000/svg" xml:space="preserve" width="1.70666in" height="1.70666in" version="1.1" style="shape-rendering:geometricPrecision; text-rendering:geometricPrecision; image-rendering:optimizeQuality; fill-rule:evenodd; clip-rule:evenodd"
viewBox="0 0 1707 1707"
 xmlns:xlink="http://www.w3.org/1999/xlink">
 <defs>
  <style type="text/css">
   <![CDATA[
    .fil0 {fill:black}
   ]]>
  </style>
 </defs>
 <g id="Layer_x0020_1">
  <metadata id="CorelCorpID_0Corel-Layer"/>
  <g id="_415125584">
   <g>
    <g>
     <path class="fil0" d="M719 1096c-3,0 -4,0 -7,-2 -138,-40 -233,-166 -233,-309 0,-178 144,-321 322,-321 143,0 271,96 309,235 5,12 -4,26 -16,30 -13,4 -27,-4 -31,-17 -33,-116 -140,-198 -262,-198 -152,0 -274,122 -274,272 0,121 82,229 199,262 12,5 21,17 16,31 -2,10 -12,17 -23,17z"/>
    </g>
    <g>
     <path class="fil0" d="M938 1572l-276 0c-14,0 -25,-11 -25,-25l0 -157c-53,-14 -103,-35 -149,-62l-112 112c-10,10 -25,10 -35,0l-196 -196c-9,-9 -9,-25 0,-34l113 -113c-28,-49 -49,-99 -61,-149l-159 0c-14,0 -25,-11 -25,-25l0 -276c0,-14 11,-25 25,-25l159 0c14,-51 34,-101 62,-148l-112 -112c-5,-4 -7,-11 -7,-16 0,-6 2,-13 7,-17l195 -197c10,-10 25,-10 35,0l113 111c47,-26 97,-47 148,-61l0 -158c0,-14 11,-24 25,-24l277 0c13,0 25,11 25,24l0 158c51,14 101,35 148,61l113 -111c9,-10 25,-10 34,0l195 196c4,4 7,11 7,16 0,6 -3,13 -7,17l-113 111c28,49 49,97 63,149l158 0c14,0 25,11 25,25l0 276c0,14 -11,25 -25,25l-158 0c-18,63 -52,119 -82,168 -7,11 -22,15 -33,7 -12,-7 -16,-22 -7,-33 32,-50 66,-111 80,-172 3,-12 13,-20 24,-20l152 0 0 -226 -152 0c-11,0 -21,-9 -24,-18 -14,-59 -37,-116 -71,-170 -5,-9 -4,-22 4,-30l109 -109 -163 -161 -108 109c-8,8 -21,9 -29,4 -53,-32 -111,-56 -170,-70 -11,-2 -19,-12 -19,-23l0 -156 -229 0 0 154c0,11 -8,21 -20,24 -59,14 -116,37 -169,69 -10,6 -22,5 -29,-4l-108 -108 -163 162 108 109c9,8 10,21 5,30 -34,54 -57,111 -71,170 -3,11 -13,18 -24,18l-153 0 0 227 154 0c12,0 21,9 24,20 13,57 36,114 70,169 5,10 4,23 -5,31l-108 108 161 161 108 -108c9,-8 21,-10 31,-3 53,34 110,57 169,71 12,3 20,12 20,24l0 152 228 0 0 -152c0,-12 8,-21 19,-24 61,-14 108,-43 158,-74 11,-7 27,-2 34,9 7,11 2,26 -9,33 -48,29 -94,58 -154,75l0 158c0,13 -11,24 -25,24z"/>
    </g>
    <g>
     <path class="fil0" d="M1328 1551c-7,0 -12,-3 -18,-7l-525 -547c-4,-4 -6,-11 -6,-17 0,-7 2,-12 6,-16l199 -192c10,-10 25,-8 35,1l526 548c4,4 7,11 7,18 0,7 -3,12 -7,16l-199 189c-5,4 -11,7 -18,7zm-491 -571l491 513 163 -156 -490 -514 -164 157z"/>
    </g>
    <g>
     <path class="fil0" d="M803 1004c-1,0 -1,0 0,0 -6,0 -13,-3 -18,-8 -54,-59 -52,-148 5,-203 0,0 0,0 0,0l25 -24c57,-54 148,-52 202,4 5,5 7,12 7,19 0,6 -2,12 -7,16l-197 189c-5,4 -11,7 -17,7zm21 -176c-32,30 -37,77 -18,115l159 -151c-37,-23 -84,-19 -116,12l-25 24z"/>
    </g>
    <g>
     <path class="fil0" d="M1667 1707c-3,0 -5,0 -8,-2l-296 -112c-3,-2 -7,-3 -8,-6l-42 -44c-10,-10 -8,-25 2,-35l198 -189c4,-4 11,-7 17,-7 7,0 12,3 16,7l42 43c3,3 4,6 6,10l98 301c3,9 0,18 -7,25 -7,6 -12,9 -18,9zm-283 -157l243 91 -82 -248 -21 -21 -162 156 22 22z"/>
    </g>
    <g>
     <path class="fil0" d="M1531 1655c-4,0 -8,-1 -11,-2 -11,-7 -15,-21 -10,-34 10,-18 24,-36 42,-54 21,-19 39,-32 58,-42 13,-5 27,0 32,11 6,13 0,27 -11,32 -15,7 -29,18 -46,34 -14,14 -25,28 -33,43 -4,8 -13,12 -21,12z"/>
    </g>
    <g>
     <path class="fil0" d="M1331 1430c-7,0 -12,-2 -18,-7l-407 -423c-9,-10 -8,-25 0,-35 10,-10 25,-8 35,0l407 424c10,9 8,25 0,34 -6,5 -11,7 -17,7z"/>
    </g>
    <g>
     <path class="fil0" d="M1406 1358c-7,0 -12,-3 -18,-7l-407 -423c-9,-10 -8,-25 0,-35 10,-10 25,-8 35,0l407 423c10,10 8,25 0,35 -6,4 -11,7 -17,7z"/>
    </g>
   </g>
  </g>
 </g>
</svg>
